<?xml version="1.0" encoding="UTF-8" standalone="no"?>
<svg
   xmlns:dc="http://purl.org/dc/elements/1.1/"
   xmlns:cc="http://creativecommons.org/ns#"
   xmlns:rdf="http://www.w3.org/1999/02/22-rdf-syntax-ns#"
   xmlns:svg="http://www.w3.org/2000/svg"
   xmlns="http://www.w3.org/2000/svg"
   xmlns:sodipodi="http://sodipodi.sourceforge.net/DTD/sodipodi-0.dtd"
   xmlns:inkscape="http://www.inkscape.org/namespaces/inkscape"
   version="1.1"
   id="Capa_1"
   x="0px"
   y="0px"
   viewBox="0 0 512 512"
   style="enable-background:new 0 0 512 512;"
   xml:space="preserve"
   sodipodi:docname="logo.svg"
   inkscape:version="1.0.1 (3bc2e813f5, 2020-09-07)"
   inkscape:export-filename="D:\Documents\Project\JS\deepl_unlocker\docs\img\logo.png"
   inkscape:export-xdpi="96"
   inkscape:export-ydpi="96"><metadata
   id="metadata39"><rdf:RDF><cc:Work
       rdf:about=""><dc:format>image/svg+xml</dc:format><dc:type
         rdf:resource="http://purl.org/dc/dcmitype/StillImage" /><dc:title /></cc:Work></rdf:RDF></metadata><defs
   id="defs37" /><sodipodi:namedview
   pagecolor="#0f2b46"
   bordercolor="#666666"
   borderopacity="1"
   objecttolerance="10"
   gridtolerance="10"
   guidetolerance="10"
   inkscape:pageopacity="1"
   inkscape:pageshadow="2"
   inkscape:window-width="1541"
   inkscape:window-height="1256"
   id="namedview35"
   showgrid="false"
   inkscape:snap-text-baseline="false"
   inkscape:zoom="0.984375"
   inkscape:cx="219.35747"
   inkscape:cy="509.98225"
   inkscape:window-x="166"
   inkscape:window-y="87"
   inkscape:window-maximized="0"
   inkscape:current-layer="Capa_1"
   inkscape:document-rotation="0" />

<g
   id="g4">
</g>
<g
   id="g6">
</g>
<g
   id="g8">
</g>
<g
   id="g10">
</g>
<g
   id="g12">
</g>
<g
   id="g14">
</g>
<g
   id="g16">
</g>
<g
   id="g18">
</g>
<g
   id="g20">
</g>
<g
   id="g22">
</g>
<g
   id="g24">
</g>
<g
   id="g26">
</g>
<g
   id="g28">
</g>
<g
   id="g30">
</g>
<g
   id="g32">
</g>
<g
   id="g874"
   transform="matrix(3.3931333,0,0,3.3931333,-775.13378,-872.23577)"
   style="fill:#4effff;fill-opacity:1"><path
     id="path4213"
     style="fill:#ffffff;fill-opacity:1;fill-rule:nonzero;stroke:none;stroke-width:1.25"
     d="m 305.33393,365.8978 c -3.49625,0 -6.32875,-2.8325 -6.32875,-6.32875 0,-0.36875 0.0312,-0.73 0.0937,-1.08125 l -15.135,-8.715 c -1.10125,0.93 -2.525,1.49125 -4.07875,1.49125 -3.49625,0 -6.33,-2.83375 -6.33,-6.32875 0,-3.495 2.83375,-6.32875 6.33,-6.32875 3.49625,0 6.33,2.83375 6.33,6.32875 0,0.4025 -0.0412,0.79625 -0.11375,1.17875 l 15.08,8.6825 c 1.11125,-0.96875 2.56375,-1.55625 4.1525,-1.55625 3.49375,0 6.3275,2.83375 6.3275,6.32875 0,3.49625 -2.83375,6.32875 -6.3275,6.32875 m -19.1962,8.405 c 0,3.495 -2.8325,6.32875 -6.32875,6.32875 -3.49375,0 -6.3275,-2.83375 -6.3275,-6.32875 0,-3.49625 2.83375,-6.33 6.3275,-6.33 1.57125,0 3.00625,0.57375 4.1125,1.52125 l 11.03375,-6.34125 c 0.47125,1.36125 1.20375,2.60125 2.135,3.66125 l -11.05375,6.35375 c 0.065,0.36875 0.10125,0.7475 0.10125,1.135 m 44.15697,-102.15441 c -14.5607,0 -26.40627,11.84557 -26.40627,26.40627 v 26.40628 h -45.26789 c -4.16654,0 -7.54465,3.37811 -7.54465,7.54464 v 52.81255 c 0,4.16653 3.37811,7.54465 7.54465,7.54465 h 67.90184 c 4.16653,0 7.54465,-3.37812 7.54465,-7.54465 v -52.81255 c 0,-4.16653 -3.37812,-7.54464 -7.54465,-7.54464 h -7.54465 v -26.40628 c 0,-6.2406 5.07637,-11.31697 11.31697,-11.31697 6.2406,0 11.31697,5.07637 11.31697,11.31697 v 18.86163 c 0,4.16653 3.37812,7.54465 7.54465,7.54465 4.16654,0 7.54465,-3.37812 7.54465,-7.54465 v -18.86163 c 0,-14.5607 -11.84557,-26.40627 -26.40627,-26.40627 z" /></g></svg>
